<svg xmlns="http://www.w3.org/2000/svg" xmlns:xlink="http://www.w3.org/1999/xlink" xmlns:lucid="lucid" width="1590" height="1231"><g transform="translate(-719.5 -439.5)" lucid:page-tab-id="0_0"><path d="M940 611c22.1 0 40 17.9 40 40s-17.9 40-40 40H782.28c-22.1 0-40-17.9-40-40s17.9-40 40-40z" stroke="#3a414a" fill="#00c2a8"/><use xlink:href="#a" transform="matrix(1,0,0,1,747.2853480252356,616) translate(7.364197530864232 26.111111111111114)"/><use xlink:href="#b" transform="matrix(1,0,0,1,747.2853480252356,616) translate(80.08024691358025 52.77777777777778)"/><use xlink:href="#c" transform="matrix(1,0,0,1,747.2853480252356,616) translate(115.88271604938272 52.77777777777778)"/><path d="M1155.2 594.6a8 8 0 0 1 9.6 0l70.4 52.8a4.5 4.5 0 0 1 0 7.2l-70.4 52.8a8 8 0 0 1-9.6 0l-70.4-52.8a4.5 4.5 0 0 1 0-7.2z" stroke="#1071e5" stroke-width="3" fill="#fc9432"/><use xlink:href="#d" transform="matrix(1,0,0,1,1085,596) translate(37.99382716049383 46.111111111111114)"/><use xlink:href="#e" transform="matrix(1,0,0,1,1085,596) translate(43.611111111111114 72.77777777777777)"/><path d="M1300 606a6 6 0 0 1 6-6h288a6 6 0 0 1 6 6v98a6 6 0 0 1-6 6h-288a6 6 0 0 1-6-6z" stroke="#3a414a" fill="#6db1ff"/><use xlink:href="#f" transform="matrix(1,0,0,1,1305,605) translate(53.79629629629629 45.111111111111114)"/><use xlink:href="#g" transform="matrix(1,0,0,1,1305,605) translate(169.5987654320988 45.111111111111114)"/><use xlink:href="#h" transform="matrix(1,0,0,1,1305,605) translate(-3.4691358024691112 66.44444444444444)"/><path d="M981 651h84.1" stroke="#3a414a" fill="none"/><path d="M981 651.5h-.53l.03-.5-.02-.5h.53z" stroke="#3a414a" stroke-width=".05" fill="#3a414a"/><path d="M1079.88 651l-14.27 4.63v-9.26z" stroke="#3a414a" fill="#3a414a"/><path d="M1257.2 652h-17.7v-2h17.7zm23.8 0h-.2v-2h.2z" stroke="#c92d39" stroke-width=".05" fill="#c92d39"/><path d="M1239.53 652h-1.12l.1-1-.1-1h1.13z" fill="#c92d39"/><path d="M1239.56 652.02h-1.17l.08-1.02-.1-1.02h1.18zm-1.12-2l.1.98-.1.98h1.07V650z" stroke="#c92d39" stroke-width=".05" fill="#c92d39"/><path d="M1296.26 651l-14.26 4.63v-9.26z" fill="#c92d39"/><path d="M1299.5 651l-18.5 6v-12zm-16.5 3.26l10.03-3.26-10.03-3.26z" stroke="#c92d39" stroke-width=".05" fill="#c92d39"/><use xlink:href="#i" transform="matrix(1,0,0,1,1257.2007692681402,640.3333333333334) translate(0 14.222222222222223)"/><path d="M1161 590.5h-2v-5.47h2z" stroke="#7ab648" stroke-width=".05" fill="#7ab648"/><path d="M1161 591.56l-1-.06-1 .06v-1.1h2z" fill="#7ab648"/><path d="M1161.03 591.6l-1.03-.08-1.03.07v-1.15h2.06zm-2-1.1v1.03l.97-.06.97.06v-1.03z" stroke="#7ab648" stroke-width=".05" fill="#7ab648"/><path d="M1161.78 563.7h-5.56l2.78-8.55z" fill="#7ab648"/><path d="M1162.83 563.7h-2.1l-1.73-5.3-1.72 5.3h-2.1l3.82-11.78z" stroke="#7ab648" stroke-width=".05" fill="#7ab648"/><use xlink:href="#j" transform="matrix(1,0,0,1,1144.6913580246915,563.6978281967884) translate(0 14.222222222222223)"/><path d="M989 466a6 6 0 0 1 6-6h328a6 6 0 0 1 6 6v94c-56.78-16.7-92.14-16.7-113.56-16.7-34 0-79.22 16.7-113.22 16.7-21.08 0-56.78 0-113.22-16.7z" stroke="#3a414a" fill="#54c45e"/><use xlink:href="#f" transform="matrix(1,0,0,1,994,465) translate(69.4753086419753 32.111111111111114)"/><use xlink:href="#k" transform="matrix(1,0,0,1,994,465) translate(185.27777777777777 32.111111111111114)"/><use xlink:href="#l" transform="matrix(1,0,0,1,994,465) translate(2.3148148148148096 53.44444444444444)"/><path d="M1804.2 733.6a8 8 0 0 1 9.6 0l70.4 52.8a4.5 4.5 0 0 1 0 7.2l-70.4 52.8a8 8 0 0 1-9.6 0l-70.4-52.8a4.5 4.5 0 0 1 0-7.2z" stroke="#1071e5" stroke-width="3" fill="#fc9432"/><use xlink:href="#m" transform="matrix(1,0,0,1,1734,735) translate(37.99382716049383 46.111111111111114)"/><use xlink:href="#e" transform="matrix(1,0,0,1,1734,735) translate(43.611111111111114 72.77777777777777)"/><path d="M1909.4 791H1890v-2h19.4zm45.7 0H1940v-2h15.07z" stroke="#7ab648" stroke-width=".05" fill="#7ab648"/><path d="M1890.03 791H1889v-2h1.03z" stroke="#7ab648" stroke-width=".05" fill="#7ab648"/><path d="M1970.36 790l-14.27 4.63v-9.26z" fill="#7ab648"/><path d="M1973.6 790l-18.5 6v-12zm-16.5 3.26l10.02-3.26-10.03-3.26z" stroke="#7ab648" stroke-width=".05" fill="#7ab648"/><use xlink:href="#j" transform="matrix(1,0,0,1,1909.404303199257,779.3333333333334) translate(0 14.222222222222223)"/><path d="M1969 726a6 6 0 0 1 6-6h308a6 6 0 0 1 6 6v124c-53.44-21.7-86.72-21.7-106.88-21.7-32 0-74.56 21.7-106.56 21.7-19.84 0-53.44 0-106.56-21.7z" stroke="#3a414a" fill="#54c45e"/><use xlink:href="#f" transform="matrix(1,0,0,1,1974,725) translate(59.4753086419753 44.611111111111114)"/><use xlink:href="#k" transform="matrix(1,0,0,1,1974,725) translate(175.27777777777777 44.611111111111114)"/><use xlink:href="#n" transform="matrix(1,0,0,1,1974,725) translate(3.0740740740741614 65.94444444444444)"/><path d="M1475.2 733.6a8 8 0 0 1 9.6 0l70.4 52.8a4.5 4.5 0 0 1 0 7.2l-70.4 52.8a8 8 0 0 1-9.6 0l-70.4-52.8a4.5 4.5 0 0 1 0-7.2z" stroke="#1071e5" stroke-width="3" fill="#fff"/><use xlink:href="#o" transform="matrix(1,0,0,1,1405,735) translate(28.179012345679006 46.111111111111114)"/><use xlink:href="#e" transform="matrix(1,0,0,1,1405,735) translate(43.611111111111114 72.77777777777777)"/><path d="M1619.12 790.5h-60.1v-1h60.1zm98.1 0h-71.5v-1h71.5z" stroke="#54c45e" stroke-width=".05" fill="#54c45e"/><path d="M1559.02 790.5h-.56l.05-.5-.04-.5h.56z" fill="#54c45e"/><path d="M1559.04 790.52h-.6l.04-.52-.05-.52h.6zm-.55-1l.03.48-.04.48h.5v-.96z" stroke="#54c45e" stroke-width=".05" fill="#54c45e"/><path d="M1731.97 790l-14.26 4.63v-9.26z" fill="#54c45e"/><path d="M1733.6 790l-16.4 5.32v-10.64zm-15.4 3.95l12.16-3.95-12.15-3.95z" stroke="#54c45e" stroke-width=".05" fill="#54c45e"/><use xlink:href="#p" transform="matrix(1,0,0,1,1619.1151329685722,779.3333333333334) translate(0 14.222222222222223)"/><path d="M1481 901h-2v-13.8h2zm0-35.13h-2V850.5h2z" stroke="#c92d39" stroke-width=".05" fill="#c92d39"/><path d="M1480 849.5l1-.06v1.1h-2v-1.1z" fill="#c92d39"/><path d="M1480 849.48l1.03-.07v1.15h-2.06v-1.14zm-.97 1.02h1.94v-1.03l-.97.06-.97-.06z" stroke="#c92d39" stroke-width=".05" fill="#c92d39"/><path d="M1480 916.26l-4.63-14.26h9.27z" fill="#c92d39"/><path d="M1480 919.5l-6-18.5h12zm-3.26-16.5l3.26 10.03 3.26-10.03z" stroke="#c92d39" stroke-width=".05" fill="#c92d39"/><use xlink:href="#q" transform="matrix(1,0,0,1,1444.0740740740741,865.8666666666667) translate(0 14.222222222222223)"/><use xlink:href="#r" transform="matrix(1,0,0,1,1444.0740740740741,865.8666666666667) translate(34.41975308641976 14.222222222222223)"/><path d="M1340 926a6 6 0 0 1 6-6h309.08a6 6 0 0 1 6 6v94a6 6 0 0 1-6 6H1346a6 6 0 0 1-6-6z" stroke="#3a414a" fill="#6db1ff"/><use xlink:href="#f" transform="matrix(1,0,0,1,1345,925) translate(61.70987654320987 43.111111111111114)"/><use xlink:href="#s" transform="matrix(1,0,0,1,1345,925) translate(177.51234567901236 43.111111111111114)"/><use xlink:href="#t" transform="matrix(1,0,0,1,1345,925) translate(-3.42283950617292 64.44444444444444)"/><path d="M1809 901h-2v-5.58h2zm0-26.92h-2V851h2z" stroke="#c92d39" stroke-width=".05" fill="#c92d39"/><path d="M1809 851.03h-2V850h2z" stroke="#c92d39" stroke-width=".05" fill="#c92d39"/><path d="M1808 916.26l-4.63-14.26h9.27z" fill="#c92d39"/><path d="M1808 919.5l-6-18.5h12zm-3.26-16.5l3.26 10.03 3.26-10.03z" stroke="#c92d39" stroke-width=".05" fill="#c92d39"/><use xlink:href="#i" transform="matrix(1,0,0,1,1796.1975308641975,874.0833584277684) translate(0 14.222222222222223)"/><path d="M1680 926a6 6 0 0 1 6-6h244.92a6 6 0 0 1 6 6v108a6 6 0 0 1-6 6H1686a6 6 0 0 1-6-6z" stroke="#3a414a" fill="#e81313"/><use xlink:href="#u" transform="matrix(1,0,0,1,1685,925) translate(26.256172839506206 50.28888888888889)"/><use xlink:href="#v" transform="matrix(1,0,0,1,1685,925) translate(101.14753086419755 50.28888888888889)"/><use xlink:href="#w" transform="matrix(1,0,0,1,1685,925) translate(-0.6209876543210271 71.08888888888889)"/><path d="M937.7 750c22.1 0 40 17.9 40 40s-17.9 40-40 40h-157.7c-22.1 0-40-17.9-40-40s17.9-40 40-40z" stroke="#3a414a" fill="#00c2a8"/><use xlink:href="#a" transform="matrix(1,0,0,1,745,755) translate(7.364197530864232 26.111111111111114)"/><use xlink:href="#x" transform="matrix(1,0,0,1,745,755) translate(76.37654320987654 52.77777777777778)"/><use xlink:href="#c" transform="matrix(1,0,0,1,745,755) translate(119.58641975308643 52.77777777777778)"/><path d="M1080 736a6 6 0 0 1 6-6h148a6 6 0 0 1 6 6v108a6 6 0 0 1-6 6h-148a6 6 0 0 1-6-6z" stroke="#3a414a" fill="#fff"/><use xlink:href="#y" transform="matrix(1,0,0,1,1092,742) translate(8.83395061728396 39.022222222222226)"/><use xlink:href="#z" transform="matrix(1,0,0,1,1092,742) translate(91.00555555555555 39.022222222222226)"/><use xlink:href="#A" transform="matrix(1,0,0,1,1092,742) translate(7.649382716049402 65.95555555555555)"/><path d="M980.5 790h84.1M980.5 790h-.5" stroke="#3a414a" fill="none"/><path d="M1079.38 790l-14.27 4.63v-9.26z" stroke="#3a414a" fill="#3a414a"/><path d="M1309.2 791h-67.7v-2h67.7zm73.8 0h-50.2v-2h50.2z" stroke="#c92d39" stroke-width=".05" fill="#c92d39"/><path d="M1241.53 791h-1.03v-2h1.03z" fill="#c92d39"/><path d="M1241.55 791.02h-1.08V789h1.08zm-1.02-2V791h.97V789z" stroke="#c92d39" stroke-width=".05" fill="#c92d39"/><path d="M1398.26 790l-14.27 4.63v-9.26z" fill="#c92d39"/><path d="M1401.5 790l-18.5 6v-12zm-16.5 3.26L1395 790l-10.03-3.26z" stroke="#c92d39" stroke-width=".05" fill="#c92d39"/><use xlink:href="#i" transform="matrix(1,0,0,1,1309.1942904194382,779.3333333333334) translate(0 14.222222222222223)"/><path d="M1161 901.5h-2v-11h2zm0-32.33h-2V851.5h2z" stroke="#7ab648" stroke-width=".05" fill="#7ab648"/><path d="M1161 851.53h-2v-1.03h2z" fill="#7ab648"/><path d="M1161.03 851.55h-2.06v-1.07h2.06zm-2-1.02v.97h1.94v-.98z" stroke="#7ab648" stroke-width=".05" fill="#7ab648"/><path d="M1160 916.76l-4.63-14.26h9.27z" fill="#7ab648"/><path d="M1160 920l-6-18.5h12zm-3.26-16.5l3.26 10.03 3.26-10.03z" stroke="#7ab648" stroke-width=".05" fill="#7ab648"/><use xlink:href="#j" transform="matrix(1,0,0,1,1144.6913580246915,869.1746791746683) translate(0 14.222222222222223)"/><path d="M980 926a6 6 0 0 1 6-6h328a6 6 0 0 1 6 6v94c-56.78-16.7-92.14-16.7-113.56-16.7-34 0-79.22 16.7-113.22 16.7-21.08 0-56.78 0-113.22-16.7z" stroke="#3a414a" fill="#54c45e"/><use xlink:href="#f" transform="matrix(1,0,0,1,985,925) translate(30.03086419753089 32.111111111111114)"/><use xlink:href="#B" transform="matrix(1,0,0,1,985,925) translate(145.83333333333337 32.111111111111114)"/><use xlink:href="#k" transform="matrix(1,0,0,1,985,925) translate(224.72222222222223 32.111111111111114)"/><use xlink:href="#C" transform="matrix(1,0,0,1,985,925) translate(81.34567901234568 53.44444444444444)"/><path d="M937.7 1060c22.1 0 40 17.9 40 40s-17.9 40-40 40h-157.7c-22.1 0-40-17.9-40-40s17.9-40 40-40z" stroke="#3a414a" fill="#00c2a8"/><use xlink:href="#a" transform="matrix(1,0,0,1,745,1065) translate(7.364197530864232 26.111111111111114)"/><use xlink:href="#D" transform="matrix(1,0,0,1,745,1065) translate(78.87654320987654 52.77777777777778)"/><use xlink:href="#c" transform="matrix(1,0,0,1,745,1065) translate(117.08641975308643 52.77777777777778)"/><path d="M1080 1046a6 6 0 0 1 6-6h148a6 6 0 0 1 6 6v108a6 6 0 0 1-6 6h-148a6 6 0 0 1-6-6z" stroke="#3a414a" fill="#fff"/><use xlink:href="#y" transform="matrix(1,0,0,1,1092,1052) translate(8.83395061728396 39.022222222222226)"/><use xlink:href="#z" transform="matrix(1,0,0,1,1092,1052) translate(91.00555555555555 39.022222222222226)"/><use xlink:href="#A" transform="matrix(1,0,0,1,1092,1052) translate(7.649382716049402 65.95555555555555)"/><path d="M980.5 1100h84.1M980.5 1100h-.5" stroke="#3a414a" fill="none"/><path d="M1079.38 1100l-14.27 4.63v-9.27z" stroke="#3a414a" fill="#3a414a"/><path d="M1309.2 1101h-67.7v-2h67.7zm73.8 0h-50.2v-2h50.2z" stroke="#c92d39" stroke-width=".05" fill="#c92d39"/><path d="M1241.53 1101h-1.03v-2h1.03z" fill="#c92d39"/><path d="M1241.55 1101.03h-1.08v-2.06h1.08zm-1.02-2v1.94h.97v-1.94z" stroke="#c92d39" stroke-width=".05" fill="#c92d39"/><path d="M1398.26 1100l-14.27 4.63v-9.27z" fill="#c92d39"/><path d="M1401.5 1100l-18.5 6v-12zm-16.5 3.26L1395 1100l-10.03-3.26z" stroke="#c92d39" stroke-width=".05" fill="#c92d39"/><use xlink:href="#i" transform="matrix(1,0,0,1,1309.1942904194382,1089.3333333333333) translate(0 14.222222222222223)"/><path d="M1161 1211.5h-2v-11h2zm0-32.33h-2v-17.67h2z" stroke="#7ab648" stroke-width=".05" fill="#7ab648"/><path d="M1161 1161.53h-2v-1.03h2z" fill="#7ab648"/><path d="M1161.03 1161.55h-2.06v-1.08h2.06zm-2-1.02v.97h1.94v-.97z" stroke="#7ab648" stroke-width=".05" fill="#7ab648"/><path d="M1160 1226.76l-4.63-14.26h9.27z" fill="#7ab648"/><path d="M1160 1230l-6-18.5h12zm-3.26-16.5l3.26 10.03 3.26-10.03z" stroke="#7ab648" stroke-width=".05" fill="#7ab648"/><use xlink:href="#j" transform="matrix(1,0,0,1,1144.6913580246915,1179.1746791746682) translate(0 14.222222222222223)"/><path d="M980 1236a6 6 0 0 1 6-6h328a6 6 0 0 1 6 6v94c-56.78-16.7-92.14-16.7-113.56-16.7-34 0-79.22 16.7-113.22 16.7-21.08 0-56.78 0-113.22-16.7z" stroke="#3a414a" fill="#54c45e"/><g><use xlink:href="#f" transform="matrix(1,0,0,1,985,1235) translate(30.03086419753089 32.111111111111114)"/><use xlink:href="#B" transform="matrix(1,0,0,1,985,1235) translate(145.83333333333337 32.111111111111114)"/><use xlink:href="#k" transform="matrix(1,0,0,1,985,1235) translate(224.72222222222223 32.111111111111114)"/><use xlink:href="#C" transform="matrix(1,0,0,1,985,1235) translate(81.34567901234568 53.44444444444444)"/></g><path d="M1475.2 1043.6a8 8 0 0 1 9.6 0l70.4 52.8a4.5 4.5 0 0 1 0 7.2l-70.4 52.8a8 8 0 0 1-9.6 0l-70.4-52.8a4.5 4.5 0 0 1 0-7.2z" stroke="#1071e5" stroke-width="3" fill="#fff"/><g><use xlink:href="#E" transform="matrix(1,0,0,1,1405,1045) translate(22.592592592592595 46.111111111111114)"/><use xlink:href="#F" transform="matrix(1,0,0,1,1405,1045) translate(70.74074074074075 46.111111111111114)"/><use xlink:href="#e" transform="matrix(1,0,0,1,1405,1045) translate(43.611111111111114 72.77777777777777)"/></g><path d="M932.7 1375c24.87 0 45 20.15 45 45s-20.13 45-45 45h-147.7c-24.85 0-45-20.15-45-45s20.15-45 45-45z" stroke="#3a414a" fill="#00c2a8"/><g><use xlink:href="#a" transform="matrix(1,0,0,1,745,1380) translate(7.364197530864232 17.77777777777778)"/><use xlink:href="#G" transform="matrix(1,0,0,1,745,1380) translate(16.46913580246914 44.44444444444444)"/><use xlink:href="#H" transform="matrix(1,0,0,1,745,1380) translate(53.50617283950618 44.44444444444444)"/><use xlink:href="#I" transform="matrix(1,0,0,1,745,1380) translate(96.71604938271605 44.44444444444444)"/><use xlink:href="#J" transform="matrix(1,0,0,1,745,1380) translate(97.98148148148148 71.11111111111111)"/></g><path d="M1080 1366a6 6 0 0 1 6-6h148a6 6 0 0 1 6 6v108a6 6 0 0 1-6 6h-148a6 6 0 0 1-6-6z" stroke="#3a414a" fill="#fff"/><g><use xlink:href="#y" transform="matrix(1,0,0,1,1092,1372) translate(8.83395061728396 39.022222222222226)"/><use xlink:href="#z" transform="matrix(1,0,0,1,1092,1372) translate(91.00555555555555 39.022222222222226)"/><use xlink:href="#A" transform="matrix(1,0,0,1,1092,1372) translate(7.649382716049402 65.95555555555555)"/></g><path d="M980.5 1420h84.1M980.5 1420h-.5" stroke="#3a414a" fill="none"/><path d="M1079.38 1420l-14.27 4.63v-9.27z" stroke="#3a414a" fill="#3a414a"/><path d="M1298.2 1421h-56.7v-2h56.7zm62.8 0h-39.2v-2h39.2z" stroke="#c92d39" stroke-width=".05" fill="#c92d39"/><path d="M1241.53 1421h-1.03v-2h1.03z" fill="#c92d39"/><path d="M1241.55 1421.03h-1.08v-2.06h1.08zm-1.02-2v1.94h.97v-1.94z" stroke="#c92d39" stroke-width=".05" fill="#c92d39"/><path d="M1376.26 1420l-14.26 4.63v-9.27z" fill="#c92d39"/><path d="M1379.5 1420l-18.5 6v-12zm-16.5 3.26l10.03-3.26-10.03-3.26z" stroke="#c92d39" stroke-width=".05" fill="#c92d39"/><g><use xlink:href="#i" transform="matrix(1,0,0,1,1298.1975308641975,1409.3333333333333) translate(0 14.222222222222223)"/></g><path d="M1161 1531.5h-2v-11h2zm0-32.33h-2v-17.67h2z" stroke="#7ab648" stroke-width=".05" fill="#7ab648"/><path d="M1161 1481.53h-2v-1.03h2z" fill="#7ab648"/><path d="M1161.03 1481.55h-2.06v-1.08h2.06zm-2-1.02v.97h1.94v-.97z" stroke="#7ab648" stroke-width=".05" fill="#7ab648"/><path d="M1160 1546.76l-4.63-14.26h9.27z" fill="#7ab648"/><path d="M1160 1550l-6-18.5h12zm-3.26-16.5l3.26 10.03 3.26-10.03z" stroke="#7ab648" stroke-width=".05" fill="#7ab648"/><g><use xlink:href="#j" transform="matrix(1,0,0,1,1144.6913580246915,1499.1746791746682) translate(0 14.222222222222223)"/></g><path d="M980 1556a6 6 0 0 1 6-6h328a6 6 0 0 1 6 6v94c-56.78-16.7-92.14-16.7-113.56-16.7-34 0-79.22 16.7-113.22 16.7-21.08 0-56.78 0-113.22-16.7z" stroke="#3a414a" fill="#54c45e"/><g><use xlink:href="#f" transform="matrix(1,0,0,1,985,1555) translate(30.03086419753089 32.111111111111114)"/><use xlink:href="#B" transform="matrix(1,0,0,1,985,1555) translate(145.83333333333337 32.111111111111114)"/><use xlink:href="#k" transform="matrix(1,0,0,1,985,1555) translate(224.72222222222223 32.111111111111114)"/><use xlink:href="#C" transform="matrix(1,0,0,1,985,1555) translate(81.34567901234568 53.44444444444444)"/></g><path d="M1380 1366a6 6 0 0 1 6-6h244.92a6 6 0 0 1 6 6v108a6 6 0 0 1-6 6H1386a6 6 0 0 1-6-6z" stroke="#3a414a" fill="#e81313"/><g><use xlink:href="#u" transform="matrix(1,0,0,1,1385,1365) translate(26.256172839506206 50.28888888888889)"/><use xlink:href="#v" transform="matrix(1,0,0,1,1385,1365) translate(101.14753086419755 50.28888888888889)"/><use xlink:href="#K" transform="matrix(1,0,0,1,1385,1365) translate(-9.582716049382753 71.08888888888889)"/></g><defs><path fill="#3a414a" d="M248-111c6-24 9-61-24-58-72 9-57 108-77 169h-31l26-142c3-37-50-30-64-10C52-115 50-51 37 0H6l36-190h30c-1 10-6 24-4 32 13-43 101-52 105 5 13-22 29-41 61-41 90 0 28 129 23 194h-31" id="L"/><path fill="#3a414a" d="M165-48c-4 18 1 34 23 27l-3 20c-29 8-62 0-52-35h-2C116-14 99 4 63 4 30 4 8-16 8-49c0-68 71-67 138-67 10-26 0-56-31-54-26 1-42 9-47 31l-32-5c8-67 160-71 144 15-5 28-9 54-15 81zM42-50c3 52 80 24 89-6 7-12 7-24 11-38-47 1-103-4-100 44" id="M"/><path fill="#3a414a" d="M198-190L69 30C53 58 25 83-20 72c4-11-1-27 19-22 33-1 43-29 59-52L20-190h32L79-34l84-156h35" id="N"/><path fill="#3a414a" d="M68-162c25-46 127-43 121 31C183-60 169 1 98 4 69 5 53-11 43-31L36 0H5l52-261h31zm88 36c2-27-9-43-34-43-55 0-70 51-70 103 0 29 15 45 43 46 52 0 58-58 61-106" id="O"/><path fill="#3a414a" d="M111-194c62-3 86 47 72 106H45c-7 38 6 69 45 68 27-1 43-14 53-32l24 11C152-15 129 4 87 4 38 3 12-23 12-71c0-70 32-119 99-123zm44 81c14-66-71-72-95-28-4 8-8 17-11 28h106" id="P"/><path fill="#3a414a" d="M187 0l-14-72H61L19 0h-37l149-248h38L221 0h-34zm-19-99l-22-123L76-99h92" id="Q"/><path fill="#3a414a" d="M55-144c13 50 104 24 104 88C159 21 15 23 1-39l26-10c6 40 102 42 102-4-13-50-104-23-104-87 0-71 143-71 148-8l-29 4c-5-35-85-37-89 0" id="R"/><path fill="#3a414a" d="M127 0L80-88 50-66 37 0H6l51-261h31L57-100l99-90h39l-93 82L161 0h-34" id="S"/><path fill="#3a414a" d="M238-179c0 84-86 86-175 82L45 0H11l48-248c82 0 179-12 179 69zm-34 1c0-53-64-42-116-43l-19 98c63 0 135 9 135-55" id="T"/><path fill="#3a414a" d="M66-151c12-25 30-51 66-40l-6 26C45-176 58-65 38 0H6l36-190h30" id="U"/><path fill="#3a414a" d="M50-231l6-30h32l-6 30H50zM6 0l37-190h31L37 0H6" id="V"/><path fill="#3a414a" d="M30-147c31-64 166-65 159 27C183-49 158 1 86 4 9 8 1-88 30-147zM88-20c53 0 68-48 68-100 0-31-11-51-44-50-52 1-68 46-68 97 0 32 13 53 44 53" id="W"/><path fill="#3a414a" d="M67-158c22-48 132-52 116 29L158 0h-32l25-140c3-38-53-32-70-12C52-117 51-52 38 0H6l36-190h30" id="X"/><g id="a"><use transform="matrix(0.06172839506172839,0,0,0.06172839506172839,0,0)" xlink:href="#L"/><use transform="matrix(0.06172839506172839,0,0,0.06172839506172839,18.456790123456788,0)" xlink:href="#M"/><use transform="matrix(0.06172839506172839,0,0,0.06172839506172839,30.80246913580247,0)" xlink:href="#N"/><use transform="matrix(0.06172839506172839,0,0,0.06172839506172839,41.91358024691358,0)" xlink:href="#O"/><use transform="matrix(0.06172839506172839,0,0,0.06172839506172839,54.25925925925926,0)" xlink:href="#P"/><use transform="matrix(0.06172839506172839,0,0,0.06172839506172839,66.60493827160494,0)" xlink:href="#Q"/><use transform="matrix(0.06172839506172839,0,0,0.06172839506172839,81.41975308641975,0)" xlink:href="#R"/><use transform="matrix(0.06172839506172839,0,0,0.06172839506172839,92.53086419753086,0)" xlink:href="#S"/><use transform="matrix(0.06172839506172839,0,0,0.06172839506172839,103.64197530864197,0)" xlink:href="#T"/><use transform="matrix(0.06172839506172839,0,0,0.06172839506172839,118.45679012345678,0)" xlink:href="#P"/><use transform="matrix(0.06172839506172839,0,0,0.06172839506172839,130.80246913580245,0)" xlink:href="#U"/><use transform="matrix(0.06172839506172839,0,0,0.06172839506172839,138.14814814814812,0)" xlink:href="#L"/><use transform="matrix(0.06172839506172839,0,0,0.06172839506172839,156.6049382716049,0)" xlink:href="#V"/><use transform="matrix(0.06172839506172839,0,0,0.06172839506172839,161.48148148148144,0)" xlink:href="#R"/><use transform="matrix(0.06172839506172839,0,0,0.06172839506172839,172.59259259259255,0)" xlink:href="#R"/><use transform="matrix(0.06172839506172839,0,0,0.06172839506172839,183.70370370370367,0)" xlink:href="#V"/><use transform="matrix(0.06172839506172839,0,0,0.06172839506172839,188.5802469135802,0)" xlink:href="#W"/><use transform="matrix(0.06172839506172839,0,0,0.06172839506172839,200.92592592592587,0)" xlink:href="#X"/></g><path fill="#3a414a" d="M9 0l6-27h63l36-188-63 39 6-31 66-41h29L110-27h60l-5 27H9" id="Y"/><path fill="#3a414a" d="M51-54c-9 22 5 41 31 30L79-1C43 14 10-4 19-52l22-115H19l5-23h22l19-43h21l-9 43h35l-4 23H73" id="Z"/><g id="b"><use transform="matrix(0.06172839506172839,0,0,0.06172839506172839,0,0)" xlink:href="#Y"/><use transform="matrix(0.06172839506172839,0,0,0.06172839506172839,12.345679012345679,0)" xlink:href="#R"/><use transform="matrix(0.06172839506172839,0,0,0.06172839506172839,23.45679012345679,0)" xlink:href="#Z"/></g><path fill="#3a414a" d="M67 3c-93-2-31-127-26-193h32L48-50c-3 39 53 32 70 12 30-34 30-101 43-152h32L157 0h-30c1-10 6-24 4-33-14 20-29 37-64 36" id="aa"/><g id="c"><use transform="matrix(0.06172839506172839,0,0,0.06172839506172839,0,0)" xlink:href="#U"/><use transform="matrix(0.06172839506172839,0,0,0.06172839506172839,7.345679012345679,0)" xlink:href="#aa"/><use transform="matrix(0.06172839506172839,0,0,0.06172839506172839,19.691358024691358,0)" xlink:href="#X"/></g><path fill="#3a414a" d="M185-189c-5-48-123-54-124 2 14 75 158 14 163 119 3 78-121 87-175 55-17-10-28-26-33-46l33-7c5 56 141 63 141-1 0-78-155-14-162-118-5-82 145-84 179-34 5 7 8 16 11 25" id="ab"/><path fill="#3a414a" d="M179-190L93 31C79 59 56 82 12 73V49c39 6 53-20 64-50L1-190h34L92-34l54-156h33" id="ac"/><path fill="#3a414a" d="M135-143c-3-34-86-38-87 0 15 53 115 12 119 90S17 21 10-45l28-5c4 36 97 45 98 0-10-56-113-15-118-90-4-57 82-63 122-42 12 7 21 19 24 35" id="ad"/><path fill="#3a414a" d="M59-47c-2 24 18 29 38 22v24C64 9 27 4 27-40v-127H5v-23h24l9-43h21v43h35v23H59v120" id="ae"/><path fill="#3a414a" d="M100-194c63 0 86 42 84 106H49c0 40 14 67 53 68 26 1 43-12 49-29l28 8c-11 28-37 45-77 45C44 4 14-33 15-96c1-61 26-98 85-98zm52 81c6-60-76-77-97-28-3 7-6 17-6 28h103" id="af"/><path fill="#3a414a" d="M210-169c-67 3-38 105-44 169h-31v-121c0-29-5-50-35-48C34-165 62-65 56 0H25l-1-190h30c1 10-1 24 2 32 10-44 99-50 107 0 11-21 27-35 58-36 85-2 47 119 55 194h-31v-121c0-29-5-49-35-48" id="ag"/><g id="d"><use transform="matrix(0.06172839506172839,0,0,0.06172839506172839,0,0)" xlink:href="#ab"/><use transform="matrix(0.06172839506172839,0,0,0.06172839506172839,14.814814814814813,0)" xlink:href="#ac"/><use transform="matrix(0.06172839506172839,0,0,0.06172839506172839,25.925925925925924,0)" xlink:href="#ad"/><use transform="matrix(0.06172839506172839,0,0,0.06172839506172839,37.03703703703704,0)" xlink:href="#ae"/><use transform="matrix(0.06172839506172839,0,0,0.06172839506172839,43.20987654320988,0)" xlink:href="#af"/><use transform="matrix(0.06172839506172839,0,0,0.06172839506172839,55.55555555555556,0)" xlink:href="#ag"/></g><path fill="#3a414a" d="M30-248c118-7 216 8 213 122C240-48 200 0 122 0H30v-248zM63-27c89 8 146-16 146-99s-60-101-146-95v194" id="ah"/><path fill="#3a414a" d="M24-231v-30h32v30H24zM24 0v-190h32V0H24" id="ai"/><path fill="#3a414a" d="M141-36C126-15 110 5 73 4 37 3 15-17 15-53c-1-64 63-63 125-63 3-35-9-54-41-54-24 1-41 7-42 31l-33-3c5-37 33-52 76-52 45 0 72 20 72 64v82c-1 20 7 32 28 27v20c-31 9-61-2-59-35zM48-53c0 20 12 33 32 33 41-3 63-29 60-74-43 2-92-5-92 41" id="aj"/><path fill="#3a414a" d="M24 0v-261h32V0H24" id="ak"/><path fill="#3a414a" d="M100-194c62-1 85 37 85 99 1 63-27 99-86 99S16-35 15-95c0-66 28-99 85-99zM99-20c44 1 53-31 53-75 0-43-8-75-51-75s-53 32-53 75 10 74 51 75" id="al"/><path fill="#3a414a" d="M177-190C167-65 218 103 67 71c-23-6-38-20-44-43l32-5c15 47 100 32 89-28v-30C133-14 115 1 83 1 29 1 15-40 15-95c0-56 16-97 71-98 29-1 48 16 59 35 1-10 0-23 2-32h30zM94-22c36 0 50-32 50-73 0-42-14-75-50-75-39 0-46 34-46 75s6 73 46 73" id="am"/><g id="e"><use transform="matrix(0.06172839506172839,0,0,0.06172839506172839,0,0)" xlink:href="#ah"/><use transform="matrix(0.06172839506172839,0,0,0.06172839506172839,15.987654320987653,0)" xlink:href="#ai"/><use transform="matrix(0.06172839506172839,0,0,0.06172839506172839,20.864197530864196,0)" xlink:href="#aj"/><use transform="matrix(0.06172839506172839,0,0,0.06172839506172839,33.20987654320987,0)" xlink:href="#ak"/><use transform="matrix(0.06172839506172839,0,0,0.06172839506172839,38.08641975308642,0)" xlink:href="#al"/><use transform="matrix(0.06172839506172839,0,0,0.06172839506172839,50.432098765432094,0)" xlink:href="#am"/></g><path fill="#3a414a" d="M30-248c87 1 191-15 191 75 0 78-77 80-158 76V0H30v-248zm33 125c57 0 124 11 124-50 0-59-68-47-124-48v98" id="an"/><path fill="#3a414a" d="M114-163C36-179 61-72 57 0H25l-1-190h30c1 12-1 29 2 39 6-27 23-49 58-41v29" id="ao"/><path fill="#3a414a" d="M117-194c89-4 53 116 60 194h-32v-121c0-31-8-49-39-48C34-167 62-67 57 0H25l-1-190h30c1 10-1 24 2 32 11-22 29-35 61-36" id="ap"/><g id="f"><use transform="matrix(0.06172839506172839,0,0,0.06172839506172839,0,0)" xlink:href="#an"/><use transform="matrix(0.06172839506172839,0,0,0.06172839506172839,14.814814814814813,0)" xlink:href="#af"/><use transform="matrix(0.06172839506172839,0,0,0.06172839506172839,27.160493827160494,0)" xlink:href="#ao"/><use transform="matrix(0.06172839506172839,0,0,0.06172839506172839,34.50617283950617,0)" xlink:href="#ag"/><use transform="matrix(0.06172839506172839,0,0,0.06172839506172839,52.96296296296296,0)" xlink:href="#ai"/><use transform="matrix(0.06172839506172839,0,0,0.06172839506172839,57.839506172839506,0)" xlink:href="#ad"/><use transform="matrix(0.06172839506172839,0,0,0.06172839506172839,68.95061728395062,0)" xlink:href="#ad"/><use transform="matrix(0.06172839506172839,0,0,0.06172839506172839,80.06172839506173,0)" xlink:href="#ai"/><use transform="matrix(0.06172839506172839,0,0,0.06172839506172839,84.93827160493828,0)" xlink:href="#al"/><use transform="matrix(0.06172839506172839,0,0,0.06172839506172839,97.28395061728396,0)" xlink:href="#ap"/></g><path fill="#3a414a" d="M85-194c31 0 48 13 60 33l-1-100h32l1 261h-30c-2-10 0-23-3-31C134-8 116 4 85 4 32 4 16-35 15-94c0-66 23-100 70-100zm9 24c-40 0-46 34-46 75 0 40 6 74 45 74 42 0 51-32 51-76 0-42-9-74-50-73" id="aq"/><g id="g"><use transform="matrix(0.06172839506172839,0,0,0.06172839506172839,0,0)" xlink:href="#aq"/><use transform="matrix(0.06172839506172839,0,0,0.06172839506172839,12.345679012345679,0)" xlink:href="#af"/><use transform="matrix(0.06172839506172839,0,0,0.06172839506172839,24.691358024691358,0)" xlink:href="#ap"/><use transform="matrix(0.06172839506172839,0,0,0.06172839506172839,37.03703703703704,0)" xlink:href="#ai"/><use transform="matrix(0.06172839506172839,0,0,0.06172839506172839,41.91358024691358,0)" xlink:href="#af"/><use transform="matrix(0.06172839506172839,0,0,0.06172839506172839,54.25925925925926,0)" xlink:href="#aq"/></g><path fill="#3a414a" d="M87 75C49 33 22-17 22-94c0-76 28-126 65-167h31c-38 41-64 92-64 168S80 34 118 75H87" id="ar"/><path fill="#3a414a" d="M190 0L58-211 59 0H30v-248h39L202-35l-2-213h31V0h-41" id="as"/><path fill="#3a414a" d="M30 0v-248h187v28H63v79h144v27H63v87h162V0H30" id="at"/><path fill="#3a414a" d="M266 0h-40l-56-210L115 0H75L2-248h35L96-30l15-64 43-154h32l59 218 59-218h35" id="au"/><path fill="#3a414a" d="M30 0v-248h33v221h125V0H30" id="av"/><path fill="#3a414a" d="M137-103V0h-34v-103L8-248h37l75 118 75-118h37" id="aw"/><path fill="#3a414a" d="M-5 72V49h209v23H-5" id="ax"/><path fill="#3a414a" d="M33 0v-248h34V0H33" id="ay"/><path fill="#3a414a" d="M140-251c81 0 123 46 123 126C263-46 219 4 140 4 59 4 17-45 17-125s42-126 123-126zm0 227c63 0 89-41 89-101s-29-99-89-99c-61 0-89 39-89 99S79-25 140-24" id="az"/><path fill="#3a414a" d="M127-220V0H93v-220H8v-28h204v28h-85" id="aA"/><path fill="#3a414a" d="M233-177c-1 41-23 64-60 70L243 0h-38l-65-103H63V0H30v-248c88 3 205-21 203 71zM63-129c60-2 137 13 137-47 0-61-80-42-137-45v92" id="aB"/><path fill="#3a414a" d="M240 0l2-218c-23 76-54 145-80 218h-23L58-218 59 0H30v-248h44l77 211c21-75 51-140 76-211h43V0h-30" id="aC"/><path fill="#3a414a" d="M205 0l-28-72H64L36 0H1l101-248h38L239 0h-34zm-38-99l-47-123c-12 45-31 82-46 123h93" id="aD"/><path fill="#3a414a" d="M33-261c38 41 65 92 65 168S71 34 33 75H2C39 34 66-17 66-93S39-220 2-261h31" id="aE"/><g id="h"><use transform="matrix(0.04320987654320987,0,0,0.04320987654320987,0,0)" xlink:href="#ar"/><use transform="matrix(0.04320987654320987,0,0,0.04320987654320987,5.141975308641975,0)" xlink:href="#as"/><use transform="matrix(0.04320987654320987,0,0,0.04320987654320987,16.33333333333333,0)" xlink:href="#at"/><use transform="matrix(0.04320987654320987,0,0,0.04320987654320987,26.70370370370369,0)" xlink:href="#au"/><use transform="matrix(0.04320987654320987,0,0,0.04320987654320987,41.35185185185184,0)" xlink:href="#av"/><use transform="matrix(0.04320987654320987,0,0,0.04320987654320987,48.82716049382715,0)" xlink:href="#aw"/><use transform="matrix(0.04320987654320987,0,0,0.04320987654320987,59.19753086419752,0)" xlink:href="#ax"/><use transform="matrix(0.04320987654320987,0,0,0.04320987654320987,67.83950617283949,0)" xlink:href="#ah"/><use transform="matrix(0.04320987654320987,0,0,0.04320987654320987,79.03086419753085,0)" xlink:href="#at"/><use transform="matrix(0.04320987654320987,0,0,0.04320987654320987,89.40123456790121,0)" xlink:href="#as"/><use transform="matrix(0.04320987654320987,0,0,0.04320987654320987,100.59259259259257,0)" xlink:href="#ay"/><use transform="matrix(0.04320987654320987,0,0,0.04320987654320987,104.91358024691355,0)" xlink:href="#at"/><use transform="matrix(0.04320987654320987,0,0,0.04320987654320987,115.28395061728392,0)" xlink:href="#ah"/><use transform="matrix(0.04320987654320987,0,0,0.04320987654320987,126.47530864197527,0)" xlink:href="#ax"/><use transform="matrix(0.04320987654320987,0,0,0.04320987654320987,135.11728395061724,0)" xlink:href="#as"/><use transform="matrix(0.04320987654320987,0,0,0.04320987654320987,146.3086419753086,0)" xlink:href="#az"/><use transform="matrix(0.04320987654320987,0,0,0.04320987654320987,158.40740740740736,0)" xlink:href="#aA"/><use transform="matrix(0.04320987654320987,0,0,0.04320987654320987,167.87037037037032,0)" xlink:href="#ax"/><use transform="matrix(0.04320987654320987,0,0,0.04320987654320987,176.5123456790123,0)" xlink:href="#an"/><use transform="matrix(0.04320987654320987,0,0,0.04320987654320987,186.88271604938268,0)" xlink:href="#at"/><use transform="matrix(0.04320987654320987,0,0,0.04320987654320987,197.25308641975303,0)" xlink:href="#aB"/><use transform="matrix(0.04320987654320987,0,0,0.04320987654320987,208.44444444444443,0)" xlink:href="#aC"/><use transform="matrix(0.04320987654320987,0,0,0.04320987654320987,221.3641975308642,0)" xlink:href="#aD"/><use transform="matrix(0.04320987654320987,0,0,0.04320987654320987,231.73456790123456,0)" xlink:href="#as"/><use transform="matrix(0.04320987654320987,0,0,0.04320987654320987,242.92592592592592,0)" xlink:href="#at"/><use transform="matrix(0.04320987654320987,0,0,0.04320987654320987,253.29629629629633,0)" xlink:href="#as"/><use transform="matrix(0.04320987654320987,0,0,0.04320987654320987,264.48765432098764,0)" xlink:href="#aA"/><use transform="matrix(0.04320987654320987,0,0,0.04320987654320987,273.9506172839506,0)" xlink:href="#av"/><use transform="matrix(0.04320987654320987,0,0,0.04320987654320987,281.42592592592587,0)" xlink:href="#aw"/><use transform="matrix(0.04320987654320987,0,0,0.04320987654320987,291.79629629629625,0)" xlink:href="#aE"/></g><path fill="#333" d="M175 0L67-191c6 58 2 128 3 191H24v-248h59L193-55c-6-58-2-129-3-193h46V0h-61" id="aF"/><path fill="#333" d="M110-194c64 0 96 36 96 99 0 64-35 99-97 99-61 0-95-36-95-99 0-62 34-99 96-99zm-1 164c35 0 45-28 45-65 0-40-10-65-43-65-34 0-45 26-45 65 0 36 10 65 43 65" id="aG"/><g id="i"><use transform="matrix(0.04938271604938272,0,0,0.04938271604938272,0,0)" xlink:href="#aF"/><use transform="matrix(0.04938271604938272,0,0,0.04938271604938272,12.790123456790125,0)" xlink:href="#aG"/></g><path fill="#333" d="M146-102V0H94v-102L6-248h54l60 105 60-105h54" id="aH"/><path fill="#333" d="M185-48c-13 30-37 53-82 52C43 2 14-33 14-96s30-98 90-98c62 0 83 45 84 108H66c0 31 8 55 39 56 18 0 30-7 34-22zm-45-69c5-46-57-63-70-21-2 6-4 13-4 21h74" id="aI"/><path fill="#333" d="M137-138c1-29-70-34-71-4 15 46 118 7 119 86 1 83-164 76-172 9l43-7c4 19 20 25 44 25 33 8 57-30 24-41C81-84 22-81 20-136c-2-80 154-74 161-7" id="aJ"/><g id="j"><use transform="matrix(0.04938271604938272,0,0,0.04938271604938272,0,0)" xlink:href="#aH"/><use transform="matrix(0.04938271604938272,0,0,0.04938271604938272,10.864197530864198,0)" xlink:href="#aI"/><use transform="matrix(0.04938271604938272,0,0,0.04938271604938272,20.74074074074074,0)" xlink:href="#aJ"/></g><g id="k"><use transform="matrix(0.06172839506172839,0,0,0.06172839506172839,0,0)" xlink:href="#am"/><use transform="matrix(0.06172839506172839,0,0,0.06172839506172839,12.345679012345679,0)" xlink:href="#ao"/><use transform="matrix(0.06172839506172839,0,0,0.06172839506172839,19.691358024691358,0)" xlink:href="#aj"/><use transform="matrix(0.06172839506172839,0,0,0.06172839506172839,32.03703703703704,0)" xlink:href="#ap"/><use transform="matrix(0.06172839506172839,0,0,0.06172839506172839,44.382716049382715,0)" xlink:href="#ae"/><use transform="matrix(0.06172839506172839,0,0,0.06172839506172839,50.55555555555556,0)" xlink:href="#af"/><use transform="matrix(0.06172839506172839,0,0,0.06172839506172839,62.901234567901234,0)" xlink:href="#aq"/></g><path fill="#3a414a" d="M143 4C61 4 22-44 18-125c-5-107 100-154 193-111 17 8 29 25 37 43l-32 9c-13-25-37-40-76-40-61 0-88 39-88 99 0 61 29 100 91 101 35 0 62-11 79-27v-45h-74v-28h105v86C228-13 192 4 143 4" id="aK"/><path fill="#3a414a" d="M197 0v-115H63V0H30v-248h33v105h134v-105h34V0h-34" id="aL"/><path fill="#3a414a" d="M232-93c-1 65-40 97-104 97C67 4 28-28 28-90v-158h33c8 89-33 224 67 224 102 0 64-133 71-224h33v155" id="aM"/><g id="l"><use transform="matrix(0.04320987654320987,0,0,0.04320987654320987,0,0)" xlink:href="#ar"/><use transform="matrix(0.04320987654320987,0,0,0.04320987654320987,5.141975308641975,0)" xlink:href="#as"/><use transform="matrix(0.04320987654320987,0,0,0.04320987654320987,16.33333333333333,0)" xlink:href="#at"/><use transform="matrix(0.04320987654320987,0,0,0.04320987654320987,26.70370370370369,0)" xlink:href="#au"/><use transform="matrix(0.04320987654320987,0,0,0.04320987654320987,41.35185185185184,0)" xlink:href="#av"/><use transform="matrix(0.04320987654320987,0,0,0.04320987654320987,48.82716049382715,0)" xlink:href="#aw"/><use transform="matrix(0.04320987654320987,0,0,0.04320987654320987,59.19753086419752,0)" xlink:href="#ax"/><use transform="matrix(0.04320987654320987,0,0,0.04320987654320987,67.83950617283949,0)" xlink:href="#aK"/><use transform="matrix(0.04320987654320987,0,0,0.04320987654320987,79.93827160493825,0)" xlink:href="#aB"/><use transform="matrix(0.04320987654320987,0,0,0.04320987654320987,91.1296296296296,0)" xlink:href="#aD"/><use transform="matrix(0.04320987654320987,0,0,0.04320987654320987,101.49999999999997,0)" xlink:href="#as"/><use transform="matrix(0.04320987654320987,0,0,0.04320987654320987,112.69135802469134,0)" xlink:href="#aA"/><use transform="matrix(0.04320987654320987,0,0,0.04320987654320987,122.1543209876543,0)" xlink:href="#at"/><use transform="matrix(0.04320987654320987,0,0,0.04320987654320987,132.52469135802465,0)" xlink:href="#ah"/><use transform="matrix(0.04320987654320987,0,0,0.04320987654320987,143.71604938271602,0)" xlink:href="#ax"/><use transform="matrix(0.04320987654320987,0,0,0.04320987654320987,152.358024691358,0)" xlink:href="#au"/><use transform="matrix(0.04320987654320987,0,0,0.04320987654320987,167.00617283950615,0)" xlink:href="#ay"/><use transform="matrix(0.04320987654320987,0,0,0.04320987654320987,171.32716049382714,0)" xlink:href="#aA"/><use transform="matrix(0.04320987654320987,0,0,0.04320987654320987,180.7901234567901,0)" xlink:href="#aL"/><use transform="matrix(0.04320987654320987,0,0,0.04320987654320987,191.98148148148147,0)" xlink:href="#az"/><use transform="matrix(0.04320987654320987,0,0,0.04320987654320987,204.08024691358025,0)" xlink:href="#aM"/><use transform="matrix(0.04320987654320987,0,0,0.04320987654320987,215.2716049382716,0)" xlink:href="#aA"/><use transform="matrix(0.04320987654320987,0,0,0.04320987654320987,224.73456790123456,0)" xlink:href="#ax"/><use transform="matrix(0.04320987654320987,0,0,0.04320987654320987,233.37654320987653,0)" xlink:href="#aB"/><use transform="matrix(0.04320987654320987,0,0,0.04320987654320987,244.5679012345679,0)" xlink:href="#aD"/><use transform="matrix(0.04320987654320987,0,0,0.04320987654320987,253.77160493827162,0)" xlink:href="#aA"/><use transform="matrix(0.04320987654320987,0,0,0.04320987654320987,263.2345679012346,0)" xlink:href="#ay"/><use transform="matrix(0.04320987654320987,0,0,0.04320987654320987,267.55555555555554,0)" xlink:href="#az"/><use transform="matrix(0.04320987654320987,0,0,0.04320987654320987,279.65432098765433,0)" xlink:href="#as"/><use transform="matrix(0.04320987654320987,0,0,0.04320987654320987,290.84567901234567,0)" xlink:href="#aD"/><use transform="matrix(0.04320987654320987,0,0,0.04320987654320987,301.21604938271605,0)" xlink:href="#av"/><use transform="matrix(0.04320987654320987,0,0,0.04320987654320987,309.858024691358,0)" xlink:href="#at"/><use transform="matrix(0.04320987654320987,0,0,0.04320987654320987,320.2283950617284,0)" xlink:href="#aE"/></g><g id="m"><use transform="matrix(0.06172839506172839,0,0,0.06172839506172839,0,0)" xlink:href="#ab"/><use transform="matrix(0.06172839506172839,0,0,0.06172839506172839,14.814814814814813,0)" xlink:href="#ac"/><use transform="matrix(0.06172839506172839,0,0,0.06172839506172839,25.925925925925924,0)" xlink:href="#ad"/><use transform="matrix(0.06172839506172839,0,0,0.06172839506172839,37.03703703703704,0)" xlink:href="#ae"/><use transform="matrix(0.06172839506172839,0,0,0.06172839506172839,43.20987654320988,0)" xlink:href="#af"/><use transform="matrix(0.06172839506172839,0,0,0.06172839506172839,55.55555555555556,0)" xlink:href="#ag"/></g><path fill="#3a414a" d="M63-220v92h138v28H63V0H30v-248h175v28H63" id="aN"/><g id="n"><use transform="matrix(0.04320987654320985,0,0,0.04320987654320985,0,0)" xlink:href="#ar"/><use transform="matrix(0.04320987654320985,0,0,0.04320987654320985,5.141975308641973,0)" xlink:href="#as"/><use transform="matrix(0.04320987654320985,0,0,0.04320987654320985,16.333333333333325,0)" xlink:href="#at"/><use transform="matrix(0.04320987654320985,0,0,0.04320987654320985,26.703703703703688,0)" xlink:href="#au"/><use transform="matrix(0.04320987654320985,0,0,0.04320987654320985,41.351851851851826,0)" xlink:href="#av"/><use transform="matrix(0.04320987654320985,0,0,0.04320987654320985,48.82716049382714,0)" xlink:href="#aw"/><use transform="matrix(0.04320987654320985,0,0,0.04320987654320985,59.197530864197496,0)" xlink:href="#ax"/><use transform="matrix(0.04320987654320985,0,0,0.04320987654320985,67.83950617283948,0)" xlink:href="#aK"/><use transform="matrix(0.04320987654320985,0,0,0.04320987654320985,79.93827160493824,0)" xlink:href="#aB"/><use transform="matrix(0.04320987654320985,0,0,0.04320987654320985,91.1296296296296,0)" xlink:href="#aD"/><use transform="matrix(0.04320987654320985,0,0,0.04320987654320985,101.49999999999997,0)" xlink:href="#as"/><use transform="matrix(0.04320987654320985,0,0,0.04320987654320985,112.69135802469131,0)" xlink:href="#aA"/><use transform="matrix(0.04320987654320985,0,0,0.04320987654320985,122.15432098765427,0)" xlink:href="#at"/><use transform="matrix(0.04320987654320985,0,0,0.04320987654320985,132.52469135802463,0)" xlink:href="#ah"/><use transform="matrix(0.04320987654320985,0,0,0.04320987654320985,143.71604938271597,0)" xlink:href="#ax"/><use transform="matrix(0.04320987654320985,0,0,0.04320987654320985,152.35802469135794,0)" xlink:href="#aD"/><use transform="matrix(0.04320987654320985,0,0,0.04320987654320985,162.7283950617283,0)" xlink:href="#aN"/><use transform="matrix(0.04320987654320985,0,0,0.04320987654320985,172.19135802469125,0)" xlink:href="#aA"/><use transform="matrix(0.04320987654320985,0,0,0.04320987654320985,181.65432098765422,0)" xlink:href="#at"/><use transform="matrix(0.04320987654320985,0,0,0.04320987654320985,192.0246913580246,0)" xlink:href="#aB"/><use transform="matrix(0.04320987654320985,0,0,0.04320987654320985,203.2160493827159,0)" xlink:href="#ax"/><use transform="matrix(0.04320987654320985,0,0,0.04320987654320985,211.85802469135788,0)" xlink:href="#aB"/><use transform="matrix(0.04320987654320985,0,0,0.04320987654320985,223.04938271604922,0)" xlink:href="#aD"/><use transform="matrix(0.04320987654320985,0,0,0.04320987654320985,232.25308641975292,0)" xlink:href="#aA"/><use transform="matrix(0.04320987654320985,0,0,0.04320987654320985,241.71604938271588,0)" xlink:href="#ay"/><use transform="matrix(0.04320987654320985,0,0,0.04320987654320985,246.03703703703687,0)" xlink:href="#az"/><use transform="matrix(0.04320987654320985,0,0,0.04320987654320985,258.1358024691356,0)" xlink:href="#as"/><use transform="matrix(0.04320987654320985,0,0,0.04320987654320985,269.32716049382697,0)" xlink:href="#aD"/><use transform="matrix(0.04320987654320985,0,0,0.04320987654320985,279.69753086419735,0)" xlink:href="#av"/><use transform="matrix(0.04320987654320985,0,0,0.04320987654320985,288.3395061728393,0)" xlink:href="#at"/><use transform="matrix(0.04320987654320985,0,0,0.04320987654320985,298.7098765432097,0)" xlink:href="#aE"/></g><g id="o"><use transform="matrix(0.06172839506172839,0,0,0.06172839506172839,0,0)" xlink:href="#aB"/><use transform="matrix(0.06172839506172839,0,0,0.06172839506172839,15.987654320987653,0)" xlink:href="#aj"/><use transform="matrix(0.06172839506172839,0,0,0.06172839506172839,28.333333333333332,0)" xlink:href="#ae"/><use transform="matrix(0.06172839506172839,0,0,0.06172839506172839,34.50617283950617,0)" xlink:href="#ai"/><use transform="matrix(0.06172839506172839,0,0,0.06172839506172839,39.382716049382715,0)" xlink:href="#al"/><use transform="matrix(0.06172839506172839,0,0,0.06172839506172839,51.72839506172839,0)" xlink:href="#ap"/><use transform="matrix(0.06172839506172839,0,0,0.06172839506172839,64.07407407407408,0)" xlink:href="#aj"/><use transform="matrix(0.06172839506172839,0,0,0.06172839506172839,76.41975308641976,0)" xlink:href="#ak"/><use transform="matrix(0.06172839506172839,0,0,0.06172839506172839,81.2962962962963,0)" xlink:href="#af"/></g><path fill="#333" d="M140-251c80 0 125 45 125 126S219 4 139 4C58 4 15-44 15-125s44-126 125-126zm-1 214c52 0 73-35 73-88 0-50-21-86-72-86-52 0-73 35-73 86s22 88 72 88" id="aO"/><path fill="#333" d="M195 0l-88-114-31 24V0H24v-248h52v113l112-113h60L142-143 257 0h-62" id="aP"/><g id="p"><use transform="matrix(0.04938271604938272,0,0,0.04938271604938272,0,0)" xlink:href="#aO"/><use transform="matrix(0.04938271604938272,0,0,0.04938271604938272,13.827160493827162,0)" xlink:href="#aP"/></g><path fill="#333" d="M115-3C79 11 28 4 28-45v-112H4v-33h27l15-45h31v45h36v33H77v99c-1 23 16 31 38 25v30" id="aQ"/><g id="q"><use transform="matrix(0.04938271604938272,0,0,0.04938271604938272,0,0)" xlink:href="#aF"/><use transform="matrix(0.04938271604938272,0,0,0.04938271604938272,12.790123456790125,0)" xlink:href="#aG"/><use transform="matrix(0.04938271604938272,0,0,0.04938271604938272,23.60493827160494,0)" xlink:href="#aQ"/></g><path fill="#333" d="M231 0h-52l-39-155L100 0H48L-1-190h46L77-45c9-52 24-97 36-145h53l37 145 32-145h46" id="aR"/><g id="r"><use transform="matrix(0.04938271604938272,0,0,0.04938271604938272,0,0)" xlink:href="#aF"/><use transform="matrix(0.04938271604938272,0,0,0.04938271604938272,12.790123456790125,0)" xlink:href="#aG"/><use transform="matrix(0.04938271604938272,0,0,0.04938271604938272,23.60493827160494,0)" xlink:href="#aR"/></g><path fill="#3a414a" d="M68-38c1 34 0 65-14 84H32c9-13 17-26 17-46H33v-38h35" id="aS"/><g id="s"><use transform="matrix(0.06172839506172839,0,0,0.06172839506172839,0,0)" xlink:href="#aq"/><use transform="matrix(0.06172839506172839,0,0,0.06172839506172839,12.345679012345679,0)" xlink:href="#af"/><use transform="matrix(0.06172839506172839,0,0,0.06172839506172839,24.691358024691358,0)" xlink:href="#ap"/><use transform="matrix(0.06172839506172839,0,0,0.06172839506172839,37.03703703703704,0)" xlink:href="#ai"/><use transform="matrix(0.06172839506172839,0,0,0.06172839506172839,41.91358024691358,0)" xlink:href="#af"/><use transform="matrix(0.06172839506172839,0,0,0.06172839506172839,54.25925925925926,0)" xlink:href="#aq"/><use transform="matrix(0.06172839506172839,0,0,0.06172839506172839,66.60493827160494,0)" xlink:href="#aS"/></g><path d="M30-248c118-7 216 8 213 122C240-48 200 0 122 0H30v-248zM63-27c89 8 146-16 146-99s-60-101-146-95v194" id="aT"/><path d="M30 0v-248h187v28H63v79h144v27H63v87h162V0H30" id="aU"/><path d="M190 0L58-211 59 0H30v-248h39L202-35l-2-213h31V0h-41" id="aV"/><path d="M33 0v-248h34V0H33" id="aW"/><path d="M-5 72V49h209v23H-5" id="aX"/><path d="M127-220V0H93v-220H8v-28h204v28h-85" id="aY"/><path d="M197 0v-115H63V0H30v-248h33v105h134v-105h34V0h-34" id="aZ"/><path d="M233-177c-1 41-23 64-60 70L243 0h-38l-65-103H63V0H30v-248c88 3 205-21 203 71zM63-129c60-2 137 13 137-47 0-61-80-42-137-45v92" id="ba"/><path d="M140-251c81 0 123 46 123 126C263-46 219 4 140 4 59 4 17-45 17-125s42-126 123-126zm0 227c63 0 89-41 89-101s-29-99-89-99c-61 0-89 39-89 99S79-25 140-24" id="bb"/><path d="M232-93c-1 65-40 97-104 97C67 4 28-28 28-90v-158h33c8 89-33 224 67 224 102 0 64-133 71-224h33v155" id="bc"/><path d="M143 4C61 4 22-44 18-125c-5-107 100-154 193-111 17 8 29 25 37 43l-32 9c-13-25-37-40-76-40-61 0-88 39-88 99 0 61 29 100 91 101 35 0 62-11 79-27v-45h-74v-28h105v86C228-13 192 4 143 4" id="bd"/><path d="M205 0l-28-72H64L36 0H1l101-248h38L239 0h-34zm-38-99l-47-123c-12 45-31 82-46 123h93" id="be"/><path d="M30 0v-248h33v221h125V0H30" id="bf"/><g id="t"><use transform="matrix(0.04320987654320988,0,0,0.04320987654320988,0,0)" xlink:href="#ar"/><use transform="matrix(0.04320987654320988,0,0,0.04320987654320988,5.1419753086419755,0)" xlink:href="#aT"/><use transform="matrix(0.04320987654320988,0,0,0.04320987654320988,16.333333333333336,0)" xlink:href="#aU"/><use transform="matrix(0.04320987654320988,0,0,0.04320987654320988,26.703703703703713,0)" xlink:href="#aV"/><use transform="matrix(0.04320987654320988,0,0,0.04320987654320988,37.89506172839507,0)" xlink:href="#aW"/><use transform="matrix(0.04320987654320988,0,0,0.04320987654320988,42.21604938271606,0)" xlink:href="#aU"/><use transform="matrix(0.04320987654320988,0,0,0.04320987654320988,52.58641975308643,0)" xlink:href="#aT"/><use transform="matrix(0.04320987654320988,0,0,0.04320987654320988,63.77777777777779,0)" xlink:href="#aX"/><use transform="matrix(0.04320987654320988,0,0,0.04320987654320988,72.41975308641977,0)" xlink:href="#aY"/><use transform="matrix(0.04320987654320988,0,0,0.04320987654320988,81.88271604938274,0)" xlink:href="#aZ"/><use transform="matrix(0.04320987654320988,0,0,0.04320987654320988,93.07407407407409,0)" xlink:href="#ba"/><use transform="matrix(0.04320987654320988,0,0,0.04320987654320988,104.26543209876544,0)" xlink:href="#bb"/><use transform="matrix(0.04320987654320988,0,0,0.04320987654320988,116.3641975308642,0)" xlink:href="#bc"/><use transform="matrix(0.04320987654320988,0,0,0.04320987654320988,127.55555555555554,0)" xlink:href="#bd"/><use transform="matrix(0.04320987654320988,0,0,0.04320987654320988,139.65432098765433,0)" xlink:href="#aZ"/><use transform="matrix(0.04320987654320988,0,0,0.04320987654320988,150.8456790123457,0)" xlink:href="#aX"/><use transform="matrix(0.04320987654320988,0,0,0.04320987654320988,159.48765432098767,0)" xlink:href="#ba"/><use transform="matrix(0.04320987654320988,0,0,0.04320987654320988,170.67901234567904,0)" xlink:href="#be"/><use transform="matrix(0.04320987654320988,0,0,0.04320987654320988,179.88271604938276,0)" xlink:href="#aY"/><use transform="matrix(0.04320987654320988,0,0,0.04320987654320988,189.34567901234573,0)" xlink:href="#aW"/><use transform="matrix(0.04320987654320988,0,0,0.04320987654320988,193.6666666666667,0)" xlink:href="#bb"/><use transform="matrix(0.04320987654320988,0,0,0.04320987654320988,205.76543209876544,0)" xlink:href="#aV"/><use transform="matrix(0.04320987654320988,0,0,0.04320987654320988,216.95679012345684,0)" xlink:href="#be"/><use transform="matrix(0.04320987654320988,0,0,0.04320987654320988,227.32716049382722,0)" xlink:href="#bf"/><use transform="matrix(0.04320987654320988,0,0,0.04320987654320988,235.9691358024692,0)" xlink:href="#aU"/><use transform="matrix(0.04320987654320988,0,0,0.04320987654320988,246.33950617283958,0)" xlink:href="#aX"/><use transform="matrix(0.04320987654320988,0,0,0.04320987654320988,254.98148148148155,0)" xlink:href="#aT"/><use transform="matrix(0.04320987654320988,0,0,0.04320987654320988,266.1728395061729,0)" xlink:href="#aW"/><use transform="matrix(0.04320987654320988,0,0,0.04320987654320988,270.49382716049394,0)" xlink:href="#be"/><use transform="matrix(0.04320987654320988,0,0,0.04320987654320988,280.8641975308643,0)" xlink:href="#bf"/><use transform="matrix(0.04320987654320988,0,0,0.04320987654320988,289.5061728395063,0)" xlink:href="#bb"/><use transform="matrix(0.04320987654320988,0,0,0.04320987654320988,301.6049382716051,0)" xlink:href="#bd"/><use transform="matrix(0.04320987654320988,0,0,0.04320987654320988,313.70370370370387,0)" xlink:href="#aE"/></g><path d="M100-194c63 0 86 42 84 106H49c0 40 14 67 53 68 26 1 43-12 49-29l28 8c-11 28-37 45-77 45C44 4 14-33 15-96c1-61 26-98 85-98zm52 81c6-60-76-77-97-28-3 7-6 17-6 28h103" id="bg"/><path d="M117-194c89-4 53 116 60 194h-32v-121c0-31-8-49-39-48C34-167 62-67 57 0H25l-1-190h30c1 10-1 24 2 32 11-22 29-35 61-36" id="bh"/><path d="M24-231v-30h32v30H24zM24 0v-190h32V0H24" id="bi"/><path d="M85-194c31 0 48 13 60 33l-1-100h32l1 261h-30c-2-10 0-23-3-31C134-8 116 4 85 4 32 4 16-35 15-94c0-66 23-100 70-100zm9 24c-40 0-46 34-46 75 0 40 6 74 45 74 42 0 51-32 51-76 0-42-9-74-50-73" id="bj"/><g id="u"><use transform="matrix(0.06049382716049381,0,0,0.06049382716049381,0,0)" xlink:href="#aT"/><use transform="matrix(0.06049382716049381,0,0,0.06049382716049381,15.667901234567898,0)" xlink:href="#bg"/><use transform="matrix(0.06049382716049381,0,0,0.06049382716049381,27.76666666666666,0)" xlink:href="#bh"/><use transform="matrix(0.06049382716049381,0,0,0.06049382716049381,39.865432098765424,0)" xlink:href="#bi"/><use transform="matrix(0.06049382716049381,0,0,0.06049382716049381,44.64444444444444,0)" xlink:href="#bg"/><use transform="matrix(0.06049382716049381,0,0,0.06049382716049381,56.743209876543204,0)" xlink:href="#bj"/></g><path d="M115-194c55 1 70 41 70 98S169 2 115 4C84 4 66-9 55-30l1 105H24l-1-265h31l2 30c10-21 28-34 59-34zm-8 174c40 0 45-34 45-75s-6-73-45-74c-42 0-51 32-51 76 0 43 10 73 51 73" id="bk"/><path d="M114-163C36-179 61-72 57 0H25l-1-190h30c1 12-1 29 2 39 6-27 23-49 58-41v29" id="bl"/><path d="M210-169c-67 3-38 105-44 169h-31v-121c0-29-5-50-35-48C34-165 62-65 56 0H25l-1-190h30c1 10-1 24 2 32 10-44 99-50 107 0 11-21 27-35 58-36 85-2 47 119 55 194h-31v-121c0-29-5-49-35-48" id="bm"/><path d="M141-36C126-15 110 5 73 4 37 3 15-17 15-53c-1-64 63-63 125-63 3-35-9-54-41-54-24 1-41 7-42 31l-33-3c5-37 33-52 76-52 45 0 72 20 72 64v82c-1 20 7 32 28 27v20c-31 9-61-2-59-35zM48-53c0 20 12 33 32 33 41-3 63-29 60-74-43 2-92-5-92 41" id="bn"/><path d="M59-47c-2 24 18 29 38 22v24C64 9 27 4 27-40v-127H5v-23h24l9-43h21v43h35v23H59v120" id="bo"/><path d="M24 0v-261h32V0H24" id="bp"/><path d="M179-190L93 31C79 59 56 82 12 73V49c39 6 53-20 64-50L1-190h34L92-34l54-156h33" id="bq"/><g id="v"><use transform="matrix(0.06049382716049381,0,0,0.06049382716049381,0,0)" xlink:href="#bk"/><use transform="matrix(0.06049382716049381,0,0,0.06049382716049381,12.098765432098762,0)" xlink:href="#bg"/><use transform="matrix(0.06049382716049381,0,0,0.06049382716049381,24.197530864197525,0)" xlink:href="#bl"/><use transform="matrix(0.06049382716049381,0,0,0.06049382716049381,31.39629629629629,0)" xlink:href="#bm"/><use transform="matrix(0.06049382716049381,0,0,0.06049382716049381,49.48395061728394,0)" xlink:href="#bn"/><use transform="matrix(0.06049382716049381,0,0,0.06049382716049381,61.5827160493827,0)" xlink:href="#bh"/><use transform="matrix(0.06049382716049381,0,0,0.06049382716049381,73.68148148148146,0)" xlink:href="#bg"/><use transform="matrix(0.06049382716049381,0,0,0.06049382716049381,85.78024691358021,0)" xlink:href="#bh"/><use transform="matrix(0.06049382716049381,0,0,0.06049382716049381,97.87901234567897,0)" xlink:href="#bo"/><use transform="matrix(0.06049382716049381,0,0,0.06049382716049381,103.92839506172835,0)" xlink:href="#bp"/><use transform="matrix(0.06049382716049381,0,0,0.06049382716049381,108.70740740740736,0)" xlink:href="#bq"/></g><path d="M87 75C49 33 22-17 22-94c0-76 28-126 65-167h31c-38 41-64 92-64 168S80 34 118 75H87" id="br"/><path d="M266 0h-40l-56-210L115 0H75L2-248h35L96-30l15-64 43-154h32l59 218 59-218h35" id="bs"/><path d="M137-103V0h-34v-103L8-248h37l75 118 75-118h37" id="bt"/><path d="M30-248c87 1 191-15 191 75 0 78-77 80-158 76V0H30v-248zm33 125c57 0 124 11 124-50 0-59-68-47-124-48v98" id="bu"/><path d="M240 0l2-218c-23 76-54 145-80 218h-23L58-218 59 0H30v-248h44l77 211c21-75 51-140 76-211h43V0h-30" id="bv"/><path d="M33-261c38 41 65 92 65 168S71 34 33 75H2C39 34 66-17 66-93S39-220 2-261h31" id="bw"/><g id="w"><use transform="matrix(0.04197530864197531,0,0,0.04197530864197531,0,0)" xlink:href="#br"/><use transform="matrix(0.04197530864197531,0,0,0.04197530864197531,4.995061728395061,0)" xlink:href="#aV"/><use transform="matrix(0.04197530864197531,0,0,0.04197530864197531,15.866666666666667,0)" xlink:href="#aU"/><use transform="matrix(0.04197530864197531,0,0,0.04197530864197531,25.94074074074074,0)" xlink:href="#bs"/><use transform="matrix(0.04197530864197531,0,0,0.04197530864197531,40.17037037037037,0)" xlink:href="#bf"/><use transform="matrix(0.04197530864197531,0,0,0.04197530864197531,47.4320987654321,0)" xlink:href="#bt"/><use transform="matrix(0.04197530864197531,0,0,0.04197530864197531,57.50617283950617,0)" xlink:href="#aX"/><use transform="matrix(0.04197530864197531,0,0,0.04197530864197531,65.90123456790124,0)" xlink:href="#aT"/><use transform="matrix(0.04197530864197531,0,0,0.04197530864197531,76.77283950617284,0)" xlink:href="#aU"/><use transform="matrix(0.04197530864197531,0,0,0.04197530864197531,86.84691358024692,0)" xlink:href="#aV"/><use transform="matrix(0.04197530864197531,0,0,0.04197530864197531,97.71851851851852,0)" xlink:href="#aW"/><use transform="matrix(0.04197530864197531,0,0,0.04197530864197531,101.91604938271605,0)" xlink:href="#aU"/><use transform="matrix(0.04197530864197531,0,0,0.04197530864197531,111.99012345679013,0)" xlink:href="#aT"/><use transform="matrix(0.04197530864197531,0,0,0.04197530864197531,122.86172839506173,0)" xlink:href="#aX"/><use transform="matrix(0.04197530864197531,0,0,0.04197530864197531,131.2567901234568,0)" xlink:href="#bu"/><use transform="matrix(0.04197530864197531,0,0,0.04197530864197531,141.33086419753087,0)" xlink:href="#aU"/><use transform="matrix(0.04197530864197531,0,0,0.04197530864197531,151.40493827160495,0)" xlink:href="#ba"/><use transform="matrix(0.04197530864197531,0,0,0.04197530864197531,162.27654320987656,0)" xlink:href="#bv"/><use transform="matrix(0.04197530864197531,0,0,0.04197530864197531,174.8271604938272,0)" xlink:href="#be"/><use transform="matrix(0.04197530864197531,0,0,0.04197530864197531,184.90123456790127,0)" xlink:href="#aV"/><use transform="matrix(0.04197530864197531,0,0,0.04197530864197531,195.7728395061729,0)" xlink:href="#aU"/><use transform="matrix(0.04197530864197531,0,0,0.04197530864197531,205.84691358024696,0)" xlink:href="#aV"/><use transform="matrix(0.04197530864197531,0,0,0.04197530864197531,216.7185185185186,0)" xlink:href="#aY"/><use transform="matrix(0.04197530864197531,0,0,0.04197530864197531,225.91111111111118,0)" xlink:href="#bf"/><use transform="matrix(0.04197530864197531,0,0,0.04197530864197531,233.17283950617292,0)" xlink:href="#bt"/><use transform="matrix(0.04197530864197531,0,0,0.04197530864197531,243.246913580247,0)" xlink:href="#bw"/></g><path fill="#3a414a" d="M123-251c66 0 92 69 53 113C138-94 73-75 39-27h128l-5 27H-2c17-92 123-93 159-163 14-28-1-64-36-62-29 2-46 17-54 41l-30-6c13-36 37-61 86-61" id="bx"/><path fill="#3a414a" d="M133-28C103 26-5 8 13-77c13-62 24-115 90-117 29-1 46 15 56 35l19-102h32L160 0h-30zM45-64c-2 27 10 43 35 43 54-1 69-50 69-103 0-29-15-46-42-46-53-1-58 58-62 106" id="by"/><g id="x"><use transform="matrix(0.06172839506172839,0,0,0.06172839506172839,0,0)" xlink:href="#bx"/><use transform="matrix(0.06172839506172839,0,0,0.06172839506172839,12.345679012345679,0)" xlink:href="#X"/><use transform="matrix(0.06172839506172839,0,0,0.06172839506172839,24.691358024691358,0)" xlink:href="#by"/></g><g id="y"><use transform="matrix(0.06234567901234567,0,0,0.06234567901234567,0,0)" xlink:href="#aD"/><use transform="matrix(0.06234567901234567,0,0,0.06234567901234567,14.96296296296296,0)" xlink:href="#ak"/><use transform="matrix(0.06234567901234567,0,0,0.06234567901234567,19.888271604938268,0)" xlink:href="#ao"/><use transform="matrix(0.06234567901234567,0,0,0.06234567901234567,27.307407407407403,0)" xlink:href="#af"/><use transform="matrix(0.06234567901234567,0,0,0.06234567901234567,39.776543209876536,0)" xlink:href="#aj"/><use transform="matrix(0.06234567901234567,0,0,0.06234567901234567,52.24567901234567,0)" xlink:href="#aq"/><use transform="matrix(0.06234567901234567,0,0,0.06234567901234567,64.7148148148148,0)" xlink:href="#ac"/></g><path fill="#3a414a" d="M106-169C34-169 62-67 57 0H25v-261h32l-1 103c12-21 28-36 61-36 89 0 53 116 60 194h-32v-121c2-32-8-49-39-48" id="bz"/><g id="z"><use transform="matrix(0.06234567901234567,0,0,0.06234567901234567,0,0)" xlink:href="#bz"/><use transform="matrix(0.06234567901234567,0,0,0.06234567901234567,12.469135802469133,0)" xlink:href="#aj"/><use transform="matrix(0.06234567901234567,0,0,0.06234567901234567,24.938271604938265,0)" xlink:href="#ad"/></g><path fill="#3a414a" d="M115-194c55 1 70 41 70 98S169 2 115 4C84 4 66-9 55-30l1 105H24l-1-265h31l2 30c10-21 28-34 59-34zm-8 174c40 0 45-34 45-75s-6-73-45-74c-42 0-51 32-51 76 0 43 10 73 51 73" id="bA"/><path fill="#3a414a" d="M103-251c84 0 111 97 45 133-19 10-37 24-39 52H78c0-63 77-55 77-114 0-30-21-42-52-43-32 0-53 17-56 46l-32-2c7-45 34-72 88-72zM77 0v-35h34V0H77" id="bB"/><g id="A"><use transform="matrix(0.06234567901234567,0,0,0.06234567901234567,0,0)" xlink:href="#bA"/><use transform="matrix(0.06234567901234567,0,0,0.06234567901234567,12.469135802469133,0)" xlink:href="#af"/><use transform="matrix(0.06234567901234567,0,0,0.06234567901234567,24.938271604938265,0)" xlink:href="#ao"/><use transform="matrix(0.06234567901234567,0,0,0.06234567901234567,32.3574074074074,0)" xlink:href="#ag"/><use transform="matrix(0.06234567901234567,0,0,0.06234567901234567,50.99876543209875,0)" xlink:href="#ai"/><use transform="matrix(0.06234567901234567,0,0,0.06234567901234567,55.924074074074056,0)" xlink:href="#ad"/><use transform="matrix(0.06234567901234567,0,0,0.06234567901234567,67.14629629629627,0)" xlink:href="#ad"/><use transform="matrix(0.06234567901234567,0,0,0.06234567901234567,78.36851851851848,0)" xlink:href="#ai"/><use transform="matrix(0.06234567901234567,0,0,0.06234567901234567,83.29382716049379,0)" xlink:href="#al"/><use transform="matrix(0.06234567901234567,0,0,0.06234567901234567,95.76296296296292,0)" xlink:href="#ap"/><use transform="matrix(0.06234567901234567,0,0,0.06234567901234567,108.23209876543206,0)" xlink:href="#bB"/></g><g id="B"><use transform="matrix(0.06172839506172839,0,0,0.06172839506172839,0,0)" xlink:href="#aj"/><use transform="matrix(0.06172839506172839,0,0,0.06172839506172839,12.345679012345679,0)" xlink:href="#ak"/><use transform="matrix(0.06172839506172839,0,0,0.06172839506172839,17.22222222222222,0)" xlink:href="#ao"/><use transform="matrix(0.06172839506172839,0,0,0.06172839506172839,24.5679012345679,0)" xlink:href="#af"/><use transform="matrix(0.06172839506172839,0,0,0.06172839506172839,36.913580246913575,0)" xlink:href="#aj"/><use transform="matrix(0.06172839506172839,0,0,0.06172839506172839,49.25925925925925,0)" xlink:href="#aq"/><use transform="matrix(0.06172839506172839,0,0,0.06172839506172839,61.60493827160493,0)" xlink:href="#ac"/></g><g id="C"><use transform="matrix(0.04320987654320987,0,0,0.04320987654320987,0,0)" xlink:href="#ar"/><use transform="matrix(0.04320987654320987,0,0,0.04320987654320987,5.141975308641975,0)" xlink:href="#aD"/><use transform="matrix(0.04320987654320987,0,0,0.04320987654320987,15.512345679012343,0)" xlink:href="#av"/><use transform="matrix(0.04320987654320987,0,0,0.04320987654320987,24.154320987654316,0)" xlink:href="#aB"/><use transform="matrix(0.04320987654320987,0,0,0.04320987654320987,35.34567901234567,0)" xlink:href="#at"/><use transform="matrix(0.04320987654320987,0,0,0.04320987654320987,45.71604938271604,0)" xlink:href="#aD"/><use transform="matrix(0.04320987654320987,0,0,0.04320987654320987,56.08641975308641,0)" xlink:href="#ah"/><use transform="matrix(0.04320987654320987,0,0,0.04320987654320987,67.27777777777776,0)" xlink:href="#aw"/><use transform="matrix(0.04320987654320987,0,0,0.04320987654320987,77.64814814814812,0)" xlink:href="#ax"/><use transform="matrix(0.04320987654320987,0,0,0.04320987654320987,86.2901234567901,0)" xlink:href="#aK"/><use transform="matrix(0.04320987654320987,0,0,0.04320987654320987,98.38888888888884,0)" xlink:href="#aB"/><use transform="matrix(0.04320987654320987,0,0,0.04320987654320987,109.5802469135802,0)" xlink:href="#aD"/><use transform="matrix(0.04320987654320987,0,0,0.04320987654320987,119.95061728395058,0)" xlink:href="#as"/><use transform="matrix(0.04320987654320987,0,0,0.04320987654320987,131.14197530864195,0)" xlink:href="#aA"/><use transform="matrix(0.04320987654320987,0,0,0.04320987654320987,140.6049382716049,0)" xlink:href="#at"/><use transform="matrix(0.04320987654320987,0,0,0.04320987654320987,150.9753086419753,0)" xlink:href="#ah"/><use transform="matrix(0.04320987654320987,0,0,0.04320987654320987,162.16666666666666,0)" xlink:href="#aE"/></g><path fill="#3a414a" d="M148-71c0-36-31-44-71-41l5-28c46 3 81-6 81-50 0-23-15-35-39-35-30 0-49 17-56 41l-32-3c12-39 42-63 90-64 43 0 69 19 71 60 1 43-30 58-65 66 27 5 49 22 49 53 0 85-133 99-164 35-4-7-7-15-9-22l29-9c8 25 25 45 58 45 34 1 53-17 53-48" id="bC"/><g id="D"><use transform="matrix(0.06172839506172839,0,0,0.06172839506172839,0,0)" xlink:href="#bC"/><use transform="matrix(0.06172839506172839,0,0,0.06172839506172839,12.345679012345679,0)" xlink:href="#U"/><use transform="matrix(0.06172839506172839,0,0,0.06172839506172839,19.691358024691358,0)" xlink:href="#by"/></g><g id="E"><use transform="matrix(0.06172839506172839,0,0,0.06172839506172839,0,0)" xlink:href="#av"/><use transform="matrix(0.06172839506172839,0,0,0.06172839506172839,12.345679012345679,0)" xlink:href="#aj"/><use transform="matrix(0.06172839506172839,0,0,0.06172839506172839,24.691358024691358,0)" xlink:href="#ad"/><use transform="matrix(0.06172839506172839,0,0,0.06172839506172839,35.80246913580247,0)" xlink:href="#ae"/></g><g id="F"><use transform="matrix(0.06172839506172839,0,0,0.06172839506172839,0,0)" xlink:href="#ao"/><use transform="matrix(0.06172839506172839,0,0,0.06172839506172839,7.345679012345679,0)" xlink:href="#af"/><use transform="matrix(0.06172839506172839,0,0,0.06172839506172839,19.691358024691358,0)" xlink:href="#ad"/><use transform="matrix(0.06172839506172839,0,0,0.06172839506172839,30.80246913580247,0)" xlink:href="#al"/><use transform="matrix(0.06172839506172839,0,0,0.06172839506172839,43.148148148148145,0)" xlink:href="#ao"/><use transform="matrix(0.06172839506172839,0,0,0.06172839506172839,50.49382716049382,0)" xlink:href="#ae"/></g><path fill="#3a414a" d="M149-56L138 0h-32l11-56H2l5-25 144-167h35L154-81h33l-5 25h-33zm-4-147L40-81h82" id="bD"/><path fill="#3a414a" d="M67-158c15-20 31-36 64-36 94 0 33 127 27 194h-32l25-140c3-38-53-32-70-12C52-117 51-51 37 0H6l51-261h31" id="bE"/><g id="G"><use transform="matrix(0.06172839506172839,0,0,0.06172839506172839,0,0)" xlink:href="#bD"/><use transform="matrix(0.06172839506172839,0,0,0.06172839506172839,12.345679012345679,0)" xlink:href="#Z"/><use transform="matrix(0.06172839506172839,0,0,0.06172839506172839,18.51851851851852,0)" xlink:href="#bE"/></g><g id="H"><use transform="matrix(0.06172839506172839,0,0,0.06172839506172839,0,0)" xlink:href="#M"/><use transform="matrix(0.06172839506172839,0,0,0.06172839506172839,12.345679012345679,0)" xlink:href="#X"/><use transform="matrix(0.06172839506172839,0,0,0.06172839506172839,24.691358024691358,0)" xlink:href="#by"/></g><path fill="#3a414a" d="M133-28C103 26-5 8 13-77c13-62 24-115 90-117 29-1 46 15 56 35 2-12 6-24 8-34h31L144 75h-31zM45-64c-2 27 10 43 35 43 54-1 69-50 69-103 0-29-15-46-42-46-53-1-58 58-62 106" id="bF"/><g id="I"><use transform="matrix(0.06172839506172839,0,0,0.06172839506172839,0,0)" xlink:href="#R"/><use transform="matrix(0.06172839506172839,0,0,0.06172839506172839,11.11111111111111,0)" xlink:href="#aa"/><use transform="matrix(0.06172839506172839,0,0,0.06172839506172839,23.45679012345679,0)" xlink:href="#O"/><use transform="matrix(0.06172839506172839,0,0,0.06172839506172839,35.80246913580247,0)" xlink:href="#R"/><use transform="matrix(0.06172839506172839,0,0,0.06172839506172839,46.91358024691358,0)" xlink:href="#P"/><use transform="matrix(0.06172839506172839,0,0,0.06172839506172839,59.25925925925926,0)" xlink:href="#bF"/><use transform="matrix(0.06172839506172839,0,0,0.06172839506172839,71.60493827160494,0)" xlink:href="#aa"/><use transform="matrix(0.06172839506172839,0,0,0.06172839506172839,83.95061728395062,0)" xlink:href="#P"/><use transform="matrix(0.06172839506172839,0,0,0.06172839506172839,96.2962962962963,0)" xlink:href="#X"/><use transform="matrix(0.06172839506172839,0,0,0.06172839506172839,108.64197530864199,0)" xlink:href="#Z"/></g><g id="J"><use transform="matrix(0.06172839506172839,0,0,0.06172839506172839,0,0)" xlink:href="#U"/><use transform="matrix(0.06172839506172839,0,0,0.06172839506172839,7.345679012345679,0)" xlink:href="#aa"/><use transform="matrix(0.06172839506172839,0,0,0.06172839506172839,19.691358024691358,0)" xlink:href="#X"/></g><g id="K"><use transform="matrix(0.04197530864197531,0,0,0.04197530864197531,0,0)" xlink:href="#br"/><use transform="matrix(0.04197530864197531,0,0,0.04197530864197531,4.995061728395061,0)" xlink:href="#be"/><use transform="matrix(0.04197530864197531,0,0,0.04197530864197531,15.069135802469136,0)" xlink:href="#bf"/><use transform="matrix(0.04197530864197531,0,0,0.04197530864197531,23.464197530864197,0)" xlink:href="#ba"/><use transform="matrix(0.04197530864197531,0,0,0.04197530864197531,34.3358024691358,0)" xlink:href="#aU"/><use transform="matrix(0.04197530864197531,0,0,0.04197530864197531,44.409876543209876,0)" xlink:href="#be"/><use transform="matrix(0.04197530864197531,0,0,0.04197530864197531,54.48395061728395,0)" xlink:href="#aT"/><use transform="matrix(0.04197530864197531,0,0,0.04197530864197531,65.35555555555555,0)" xlink:href="#bt"/><use transform="matrix(0.04197530864197531,0,0,0.04197530864197531,75.42962962962963,0)" xlink:href="#aX"/><use transform="matrix(0.04197530864197531,0,0,0.04197530864197531,83.8246913580247,0)" xlink:href="#aT"/><use transform="matrix(0.04197530864197531,0,0,0.04197530864197531,94.6962962962963,0)" xlink:href="#aU"/><use transform="matrix(0.04197530864197531,0,0,0.04197530864197531,104.77037037037037,0)" xlink:href="#aV"/><use transform="matrix(0.04197530864197531,0,0,0.04197530864197531,115.64197530864197,0)" xlink:href="#aW"/><use transform="matrix(0.04197530864197531,0,0,0.04197530864197531,119.8395061728395,0)" xlink:href="#aU"/><use transform="matrix(0.04197530864197531,0,0,0.04197530864197531,129.91358024691357,0)" xlink:href="#aT"/><use transform="matrix(0.04197530864197531,0,0,0.04197530864197531,140.78518518518518,0)" xlink:href="#aX"/><use transform="matrix(0.04197530864197531,0,0,0.04197530864197531,149.18024691358025,0)" xlink:href="#bu"/><use transform="matrix(0.04197530864197531,0,0,0.04197530864197531,159.25432098765432,0)" xlink:href="#aU"/><use transform="matrix(0.04197530864197531,0,0,0.04197530864197531,169.3283950617284,0)" xlink:href="#ba"/><use transform="matrix(0.04197530864197531,0,0,0.04197530864197531,180.2,0)" xlink:href="#bv"/><use transform="matrix(0.04197530864197531,0,0,0.04197530864197531,192.75061728395065,0)" xlink:href="#be"/><use transform="matrix(0.04197530864197531,0,0,0.04197530864197531,202.82469135802472,0)" xlink:href="#aV"/><use transform="matrix(0.04197530864197531,0,0,0.04197530864197531,213.69629629629634,0)" xlink:href="#aU"/><use transform="matrix(0.04197530864197531,0,0,0.04197530864197531,223.77037037037042,0)" xlink:href="#aV"/><use transform="matrix(0.04197530864197531,0,0,0.04197530864197531,234.641975308642,0)" xlink:href="#aY"/><use transform="matrix(0.04197530864197531,0,0,0.04197530864197531,243.83456790123464,0)" xlink:href="#bf"/><use transform="matrix(0.04197530864197531,0,0,0.04197530864197531,251.09629629629637,0)" xlink:href="#bt"/><use transform="matrix(0.04197530864197531,0,0,0.04197530864197531,261.17037037037045,0)" xlink:href="#bw"/></g></defs></g></svg>